<?xml version="1.0" encoding="UTF-8" standalone="no"?>
<!-- Created with Inkscape (http://www.inkscape.org/) -->

<svg
   xmlns:dc="http://purl.org/dc/elements/1.1/"
   xmlns:cc="http://creativecommons.org/ns#"
   xmlns:rdf="http://www.w3.org/1999/02/22-rdf-syntax-ns#"
   xmlns:svg="http://www.w3.org/2000/svg"
   xmlns="http://www.w3.org/2000/svg"
   xmlns:sodipodi="http://sodipodi.sourceforge.net/DTD/sodipodi-0.dtd"
   xmlns:inkscape="http://www.inkscape.org/namespaces/inkscape"
   width="585.08002"
   height="585.08002"
   id="svg3032"
   version="1.1"
   inkscape:version="0.48.4 r9939"
   sodipodi:docname="logo-red.svg"
   inkscape:export-filename="C:\Users\anhquan\git\googlecode\viem\viem-core\src\main\webapp\base\images\logo-red-bg.png"
   inkscape:export-xdpi="38.459999"
   inkscape:export-ydpi="38.459999">
  <defs
     id="defs3034" />
  <sodipodi:namedview
     id="base"
     pagecolor="#ffffff"
     bordercolor="#666666"
     borderopacity="1.0"
     inkscape:pageopacity="1"
     inkscape:pageshadow="2"
     inkscape:zoom="0.35"
     inkscape:cx="739.76316"
     inkscape:cy="156.6698"
     inkscape:document-units="px"
     inkscape:current-layer="layer1"
     showgrid="false"
     fit-margin-top="0"
     fit-margin-left="0"
     fit-margin-right="0"
     fit-margin-bottom="0"
     inkscape:window-width="964"
     inkscape:window-height="660"
     inkscape:window-x="50"
     inkscape:window-y="50"
     inkscape:window-maximized="0" />
  <metadata
     id="metadata3037">
    <rdf:RDF>
      <cc:Work
         rdf:about="">
        <dc:format>image/svg+xml</dc:format>
        <dc:type
           rdf:resource="http://purl.org/dc/dcmitype/StillImage" />
        <dc:title></dc:title>
      </cc:Work>
    </rdf:RDF>
  </metadata>
  <g
     inkscape:label="Layer 1"
     inkscape:groupmode="layer"
     id="layer1"
     transform="translate(-53.174606,-103.952)">
    <path
       style="fill:#aa0000"
       d="m 576.02856,577.3747 c 0,-1.73443 7.15598,-3.15351 15.90221,-3.15351 9.62899,0 17.19058,-1.65551 19.1682,-4.19664 2.66902,-3.42955 0.37257,-3.94077 -12.56378,-2.79673 -18.39567,1.6268 -21.69351,-1.51252 -15.34399,-14.6065 5.74312,-11.84348 9.30148,-13.08883 37.39907,-13.08883 l 23.37799,0 -7.47533,18.02557 c -4.11144,9.91403 -9.08485,19.11634 -11.052,20.44955 -5.36177,3.63387 -49.41237,3.06964 -49.41237,-0.63291 z m 42.53066,-23.8217 c 2.93339,-8.15194 2.15495,-10.867 -3.11568,-10.867 -5.99886,0 -15.75784,8.92846 -15.75784,14.41678 0,9.34366 15.26722,6.47213 18.87352,-3.54978 z m -551.718338,-2.95898 7.95199,-20.47365 24.57094,-0.0252 c 15.632978,-0.0158 23.906148,1.12291 22.743348,3.1293 -1.00519,1.73443 -7.59492,3.15352 -14.64385,3.15352 -8.664288,0 -13.367678,1.53242 -14.518398,4.73028 -1.34526,3.73849 0.88247,4.73027 10.625048,4.73027 15.50162,0 11.44224,5.48489 -5.095358,6.88467 -8.43,0.71355 -12.0843,2.57655 -12.78469,6.51778 -0.81814,4.60386 1.26112,5.51866 12.54327,5.51866 7.438178,0.001 13.523978,1.42009 13.523978,3.15453 0,1.86717 -10.78282,3.15352 -26.434138,3.15352 l -26.43413,0 7.95199,-20.47365 z m 65.201458,0.0252 c 7.34426,-19.23596 8.3781,-20.45259 17.41839,-20.49787 5.28589,-0.0252 9.61071,0.56785 9.61071,1.32075 0,0.75288 -3.50073,9.97692 -7.77939,20.49787 -7.23641,17.79253 -8.45217,19.12767 -17.41839,19.12767 l -9.639,0 7.80768,-20.44972 z m 40.8291,18.34735 c -1.08428,-1.15756 -1.97143,-8.25297 -1.97143,-15.76888 0,-13.08123 0.37912,-13.66523 8.87143,-13.66523 8.01271,0 8.88306,0.99206 8.99161,10.24893 l 0.12018,10.24893 8.22732,-10.24893 c 5.75901,-7.17413 10.7909,-10.24893 16.77222,-10.24893 l 8.54491,0 -14.56338,15.76759 c -11.30102,12.23546 -16.6308,15.76759 -23.79241,15.76759 -5.07596,0 -10.11616,-0.94606 -11.20045,-2.10236 z m 53.22857,0 c -4.13231,-4.40669 -1.68682,-14.25544 5.42211,-21.83644 6.65288,-7.09469 9.39303,-7.79111 27.35357,-6.95206 17.69714,0.82673 19.96003,1.64747 19.96003,7.23947 0,5.46612 -2.26705,6.43315 -17.00357,7.25278 -12.47506,0.6939 -17.00357,2.16366 -17.00357,5.51866 0,3.3174 3.65353,4.57291 13.30714,4.57291 7.31893,0 13.30714,1.41909 13.30714,3.15352 0,3.49101 -42.1389,4.46791 -45.34285,1.05116 z m 37.21071,-21.55032 c -1.09589,-4.67465 -13.34369,-3.825 -14.86155,1.03101 -0.92753,2.96737 1.15117,3.88463 7.14643,3.15352 4.64992,-0.56707 8.12173,-2.45009 7.71512,-4.18453 z m 22.91786,22.15898 c 0,-0.82082 2.90083,-7.8597 6.44631,-15.64195 l 6.4463,-14.14958 18.68941,0.33963 c 10.27917,0.18678 18.6894,1.54935 18.6894,3.02788 0,1.47856 -4.76455,2.68828 -10.58789,2.68828 -9.60671,0 -11.01847,1.16895 -15.23428,12.61407 -4.13227,11.21833 -5.74198,12.61408 -14.54782,12.61408 -5.44579,0 -9.90143,-0.67158 -9.90143,-1.49241 z M 336.5,568.05227 c 0,-1.84767 6.48629,-3.29167 14.78571,-3.29167 16.99039,0 19.74695,-5.02869 4.43572,-8.09186 -7.2294,-1.4463 -10.35,-3.76467 -10.35,-7.68929 0,-7.34212 5.76421,-9.44699 25.87041,-9.44699 16.99804,0 19.80425,2.65914 4.78226,4.5316 -4.66075,0.58097 -9.47214,1.21811 -10.69196,1.41587 -5.38519,0.87305 -1.55492,6.67142 4.43572,6.71488 10.84011,0.0788 16.09936,5.09321 12.25803,11.68763 -2.54039,4.36116 -7.96595,5.81449 -24.39642,6.53497 C 344.36846,570.99892 336.5,570.11814 336.5,568.05227 z m 60.04384,-0.92653 c 14.75827,-37.93039 14.1732,-37.05384 24.73303,-37.05384 9.516,0 9.86731,0.38353 6.49889,7.09542 -1.95849,3.90248 -3.47388,7.80495 -3.36754,8.67217 0.10646,0.86722 -1.71141,5.50472 -4.03942,10.3056 -3.68614,7.60156 -3.67641,8.9565 0.0754,10.49176 10.76412,4.40487 23.69026,-13.26196 16.48099,-22.52545 -3.01809,-3.87792 -1.68312,-4.57894 8.71981,-4.57894 14.53569,0 17.4428,4.8496 10.94261,18.25432 -5.85298,12.07003 -9.30341,13.28086 -37.84586,13.28086 -17.8319,0 -23.35037,-0.97996 -22.19791,-3.9419 z m 68.27134,-0.54196 c -2.17016,-6.03092 3.3985,-16.49666 11.96102,-22.47961 4.92438,-3.44086 12.5573,-4.60836 25.77094,-3.94189 16.50686,0.83256 18.77428,1.70867 18.77428,7.25397 0,5.54174 -2.26659,6.42164 -18.67983,7.25136 -22.29313,1.127 -24.06821,7.97985 -2.45576,9.48055 21.94936,1.52409 12.85733,6.91948 -11.66031,6.91948 -16.37399,0 -22.51474,-1.16129 -23.71034,-4.48386 z m 39.50267,-18.37915 c -0.67769,-2.16804 -3.6718,-3.9419 -6.65357,-3.9419 -2.98178,0 -5.97589,1.77386 -6.65358,3.9419 -0.78036,2.49655 1.65929,3.9419 6.65358,3.9419 4.99428,0 7.43393,-1.44535 6.65357,-3.9419 z m 24.39642,20.53101 c 0,-1.2826 2.31358,-8.29716 5.14126,-15.58787 l 5.14126,-13.25585 19.9488,0.20025 c 10.97185,0.11006 19.22544,1.44832 18.34138,2.9738 -0.8841,1.52549 -6.04195,2.77362 -11.46186,2.77362 -8.73655,0 -10.39125,1.43087 -14.58723,12.61407 -4.05306,10.80225 -6.01054,12.61407 -13.62823,12.61407 -4.89247,-9e-5 -8.89538,-1.04949 -8.89538,-2.33209 z M 317.43602,480.40402 c 1.13387,-9.973 2.33503,-18.48374 2.66923,-18.91275 0.3342,-0.42901 8.42885,0.76182 17.98811,2.6463 12.78842,2.52106 21.9816,2.46098 34.79532,-0.22737 9.57818,-2.00953 17.78576,-3.20036 18.23909,-2.6463 0.45333,0.55406 1.43146,9.16712 2.17365,19.14012 l 1.34946,18.13273 -39.63822,0 -39.63823,0 2.06159,-18.13273 z m 67.85683,-0.41737 0,-10.66631 -30.31091,-0.37101 -30.31092,-0.371 2.1e-4,11.936 2e-4,11.93603 30.31071,-0.89872 30.31071,-0.89869 0,-10.6663 z m -60.9406,-27.497 c -14.62313,-6.47795 -19.3684,-16.58695 -15.03174,-32.02263 1.84293,-6.55965 5.22413,-14.65872 7.51378,-17.99793 4.08351,-5.95539 4.32509,-5.95801 12.65363,-0.13737 5.92975,4.14417 13.84214,5.93392 26.23351,5.93392 12.39137,0 20.30374,-1.78975 26.23349,-5.93392 8.32856,-5.82063 8.57013,-5.818 12.65364,0.13737 2.28966,3.33921 5.64767,11.35578 7.46229,17.8146 4.10573,14.61377 -1.79522,26.05435 -16.91302,32.79045 -12.99046,5.78819 -47.16155,5.45972 -60.80558,-0.58449 z m 23.97632,-9.13947 c 0,-4.33609 -1.07637,-7.8838 -2.39194,-7.8838 -1.31557,0 -4.97504,-2.06703 -8.13214,-4.5934 -5.14517,-4.11725 -4.56994,-4.21907 5.54909,-0.9822 8.36367,2.67536 14.49442,2.70172 23.65712,0.10173 10.94708,-3.10633 11.70846,-2.9935 6.62767,0.9822 -3.1571,2.47041 -6.81657,4.49167 -8.13214,4.49167 -1.31558,0 -2.39195,3.54771 -2.39195,7.8838 0,8.76835 3.33616,9.61345 17.36402,4.39858 14.5752,-5.41836 20.00543,-22.93809 11.12424,-35.89043 -3.84538,-5.6081 -4.54471,-5.63718 -14.49334,-0.60273 -13.19081,6.67511 -28.23807,6.7319 -43.62918,0.16464 -6.60611,-2.81876 -12.87213,-4.20682 -13.92449,-3.08457 -1.05237,1.12225 -1.9952,8.75008 -2.09518,16.95073 -0.17024,13.96307 0.47572,15.26053 10.16822,20.42402 14.76608,7.86634 20.7,7.18974 20.7,-2.36024 z m 226.71174,7.26081 c -2.35673,-3.99345 -5.1761,-14.00146 -6.26527,-22.24002 -1.75574,-13.2807 -1.35351,-14.97921 3.54724,-14.97921 4.09455,0 6.24971,3.47449 8.31333,13.40245 3.61528,17.39298 12.26782,18.58392 17.18345,2.36514 3.55582,-11.73224 10.53902,-14.93405 24.45057,-11.2106 7.36172,1.97036 10.61319,8.1114 13.86663,26.18981 1.57779,8.76728 1.00011,10.24893 -3.99592,10.24893 -4.17809,0 -5.84036,-2.13398 -5.84036,-7.49766 0,-7.99475 -7.58244,-16.97841 -11.16076,-13.22326 -1.18049,1.23886 -3.58893,6.76264 -5.35201,12.27508 -2.90513,9.08296 -4.48333,10.11202 -16.8338,10.97637 -11.54534,0.80801 -14.283,-0.15591 -17.9131,-6.30703 z M 115.11158,433.24247 c -17.506108,-6.4341 -22.256288,-7.18577 -24.201308,-3.82967 -1.33101,2.29663 -1.76393,5.30776 -0.96205,6.6914 0.80189,1.38363 -0.5381,2.5157 -2.97774,2.5157 -6.885,0 -7.6124,-3.57724 -5.6927,-27.99595 1.45917,-18.5608 2.65845,-22.56087 6.52291,-21.75645 2.74336,0.57105 4.76243,4.16499 4.80018,8.54428 0.0562,6.52104 2.87534,8.56954 20.536728,14.92283 11.25937,4.0503 22.95812,7.36418 25.99722,7.36418 4.4298,0 5.34186,1.98438 4.59898,10.00608 -0.50965,5.50334 -2.25736,10.35188 -3.88379,10.77452 -1.62642,0.42264 -12.75872,-2.83397 -24.73843,-7.23692 z m 222.6258,-35.52008 C 331.332,394.95906 315.8,377.03891 315.8,372.41198 c 0,-1.4595 -0.80773,-4.89833 -1.79495,-7.64184 -1.28676,-3.57593 -0.0309,-4.98819 4.43571,-4.98819 4.72422,0 6.23067,1.9648 6.23067,8.12637 0,4.77709 3.56261,11.92556 8.64396,17.34435 6.99278,7.45716 11.18599,9.21798 21.95167,9.21798 17.05807,0 31.50437,-11.69688 31.50437,-25.50848 0,-6.96721 1.37595,-9.18022 5.70784,-9.18022 4.99175,0 5.37399,1.24146 3.04672,9.89508 -6.59005,24.50414 -34.54706,38.07193 -57.78861,28.04536 z M 123.0596,375.95668 C 102.06784,361.43571 97.688512,357.0574 98.995522,351.89815 c 2.690088,-10.61873 6.111778,-12.27664 13.984328,-6.77581 9.69559,6.77466 12.54028,6.55682 14.41892,-1.10418 1.11859,-4.56156 -1.03313,-8.2005 -7.78725,-13.1696 -5.13311,-3.77651 -9.77342,-7.20439 -10.31181,-7.61752 -0.8088,-0.62063 4.52732,-13.27945 6.90573,-16.38235 0.3795,-0.49511 11.38338,6.95508 24.45306,16.55597 13.06968,9.6009 25.19218,17.45618 26.93889,17.45618 2.68807,0 -0.29618,11.98773 -4.62889,18.59421 -0.45083,0.68742 -6.2917,-2.61182 -12.97971,-7.33165 -13.32029,-9.40032 -13.01439,-9.40228 -15.74731,0.1006 -1.5259,5.30581 0.47136,8.31171 9.98264,15.02396 12.52448,8.83871 14.25688,13.38623 8.19375,21.50845 -3.26048,4.36776 -6.72295,2.85817 -29.35827,-12.79972 z m 433.79736,2.85121 c -8.85904,-18.64342 -9.19003,-22.17946 -2.0761,-22.17946 3.24174,0 7.35986,4.45751 10.40087,11.25809 6.8341,15.28291 14.75433,13.674 16.76111,-3.40483 1.33899,-11.39573 2.4945,-12.85126 12.24118,-15.41975 14.80275,-3.90088 18.89277,-1.43546 25.98557,15.66374 7.3073,17.61641 7.25712,17.13089 1.77062,17.13089 -2.39789,0 -6.42419,-4.25724 -8.94737,-9.46055 -7.67639,-15.83027 -16.09629,-9.86805 -16.22392,11.4883 -0.0476,7.97506 -5.2109,10.58633 -20.9324,10.58633 -10.86357,0 -11.97128,-0.91415 -18.97956,-15.66276 z m -223.3141,-15.87242 c 0,-1.73444 3.32678,-3.15352 7.39285,-3.15352 4.06608,0 7.39286,1.41908 7.39286,3.15352 0,1.73443 -3.32678,3.15351 -7.39286,3.15351 -4.06607,0 -7.39285,-1.41908 -7.39285,-3.15351 z m 29.57142,0 c 0,-1.73444 3.32679,-3.15352 7.39286,-3.15352 4.06607,0 7.39286,1.41908 7.39286,3.15352 0,1.73443 -3.32679,3.15351 -7.39286,3.15351 -4.06607,0 -7.39286,-1.41908 -7.39286,-3.15351 z M 292.4771,345.76026 c 0.72598,-0.77419 15.14384,-12.08128 32.0397,-25.12687 l 30.71975,-23.71927 19.46385,14.68244 c 10.70515,8.07533 25.31077,19.38243 32.45698,25.12687 l 12.99309,10.44444 -64.49664,0 c -35.47318,0 -63.9027,-0.63342 -63.17673,-1.40761 z M 530.93213,328.4045 c -6.09911,-8.43767 -11.0776,-16.53695 -11.06332,-17.9984 0.0148,-1.46146 12.58442,-9.06535 27.93364,-16.89752 l 27.90774,-14.24032 12.01295,16.40274 c 13.15594,17.96338 11.35433,26.5628 -2.58197,12.32432 -5.19269,-5.30529 -9.93375,-7.59625 -13.06685,-6.31413 -6.08961,2.49199 -6.13225,4.39116 -0.29808,13.27375 4.20565,6.40313 4.18877,7.20874 -0.18866,9.00003 -3.03776,1.24311 -6.433,-0.50714 -9.22253,-4.7542 -5.16507,-7.86387 -9.63831,-8.43079 -17.56067,-2.22557 -5.59116,4.37931 -5.52433,4.73703 2.57485,13.7786 7.1105,7.93787 7.61094,9.57069 3.45456,11.27156 -7.53634,3.08402 -8.11106,2.69069 -19.90175,-13.62086 z M 172.64911,313.25573 c -3.10407,-8.23206 -9.21322,-23.09642 -13.5759,-33.0319 l -7.93215,-18.06451 8.02969,-10.25699 8.02968,-10.25699 25.21078,20.43771 25.21078,20.4377 -6.12945,7.09071 c -5.82939,6.74357 -6.40504,6.82474 -11.75877,1.65794 -5.36442,-5.17713 -5.89386,-5.06561 -11.25149,2.36985 -6.79791,9.43431 -7.11547,13.7837 -1.44769,19.82786 3.76991,4.02026 3.64888,5.22613 -0.97214,9.6858 -2.90297,2.80162 -5.83871,5.08854 -6.52386,5.08204 -0.68514,-0.007 -3.78541,-6.74715 -6.88948,-14.97922 z m 11.35518,-28.15485 c 1.28376,-3.56758 -0.79064,-7.65952 -6.33719,-12.50067 -11.57959,-10.10692 -12.86805,-9.22224 -7.5592,5.19026 4.87255,13.22805 10.66961,16.27768 13.89639,7.31041 z m 318.48013,6.13955 c -5.98686,-5.29361 -6.08891,-6.28552 -2.08393,-20.25731 2.31615,-8.08014 3.39719,-15.55919 2.40232,-16.62012 -0.99487,-1.06093 -6.89582,3.36821 -13.11324,9.84253 l -11.30439,11.77148 -6.07858,-6.48223 -6.07856,-6.48222 21.11116,-21.78109 c 11.61114,-11.9796 22.34604,-22.25492 23.85533,-22.83406 2.75103,-1.05561 32.01746,20.20784 35.79554,26.00715 4.78143,7.33942 -16.84519,27.18945 -24.28246,22.28771 -3.41116,-2.24821 -9.64854,13.59389 -7.59693,19.29526 0.7829,2.17574 -0.32133,5.5001 -2.45384,7.38747 -2.87177,2.54163 -5.50993,1.98804 -10.17242,-2.13457 z m 25.67891,-45.78305 c 1.4382,-8.0469 -7.54444,-10.3891 -14.4148,-3.75862 -4.51006,4.35258 -4.99946,6.27625 -2.1077,8.28432 5.95246,4.13346 15.4393,1.53491 16.5225,-4.5257 z m -305.96497,11.04685 c -4.13548,-9.97301 -10.00512,-23.62075 -13.04365,-30.32833 -5.50824,-12.15951 -5.50524,-12.21232 1.01342,-17.84135 3.59592,-3.10515 7.30051,-5.1432 8.23243,-4.52899 0.93193,0.61421 6.8801,13.6096 13.21817,28.87865 6.33806,15.26905 12.59551,28.24455 13.90543,28.83444 2.40404,1.08259 -10.34206,13.11831 -13.89259,13.11831 -1.05279,0 -5.29774,-8.15973 -9.43321,-18.13273 z m 62.80876,-12.60268 c -0.95463,-1.01802 -1.81501,-9.77416 -1.91197,-19.45809 -0.0969,-9.68393 -1.19528,-24.19733 -2.44074,-32.25201 l -2.26447,-14.64486 20.1836,-6.27881 c 16.77961,-5.21988 20.1836,-5.51506 20.1836,-1.7502 0,2.49074 -4.65749,6.60388 -10.34999,9.1403 -7.16527,3.19266 -10.35,6.64735 -10.35,11.22736 0,5.85283 1.19345,6.37691 10.35,4.54506 8.31925,-1.66434 10.34999,-1.08227 10.34999,2.96661 0,2.77047 -3.99214,6.5213 -8.87142,8.33518 -7.10886,2.64273 -8.87143,5.1163 -8.87143,12.45003 0,10.14997 0.48803,10.37137 13.85229,6.28402 7.16495,-2.19134 9.75083,-1.83066 10.95965,1.52865 0.87016,2.41819 -0.69709,5.68644 -3.48277,7.2628 -8.74289,4.94739 -35.51987,12.58106 -37.33634,10.64396 z m 124.7322,-3.40911 c -4.50021,-1.90199 -3.32865,-5.51841 9.61071,-29.66682 8.10464,-15.12544 14.73568,-28.82669 14.73568,-30.44723 0,-1.62053 9.64768,0.1763 21.43928,3.99297 24.71775,8.00056 27.3704,12.99706 16.17886,30.47422 -6.70003,10.463 -7.66359,10.87962 -23.42454,10.12843 -15.75095,-0.75072 -16.5904,-0.38872 -20.10981,8.67217 -3.62915,9.34336 -8.36209,11.1015 -18.43018,6.84626 z m 45.55283,-30.99137 c 4.76422,-4.59788 7.53568,-13.70207 4.17114,-13.70207 -0.68021,0 -3.25168,-0.82456 -5.71442,-1.83235 -2.95498,-1.20924 -6.01397,1.33577 -8.99533,7.48398 -6.48957,13.3828 -0.0689,18.28757 10.53861,8.05044 z m -115.83501,22.42808 c 0,-0.94164 5.42119,-9.3692 12.04708,-18.72792 l 12.0471,-17.01585 -6.13282,-14.78489 c -3.37303,-8.13169 -6.13279,-15.31404 -6.13279,-15.96078 0,-0.64674 3.35533,-1.17589 7.45626,-1.17589 5.08366,0 8.52808,2.50863 10.82465,7.88379 1.85265,4.33609 4.43873,7.8838 5.74685,7.8838 3.36686,0 8.67384,-11.37839 6.42534,-13.7762 -1.02707,-1.09527 2.34655,-1.99139 7.49689,-1.99139 5.15037,0 9.3643,0.83232 9.3643,1.84961 0,1.01728 -4.2129,8.10554 -9.36202,15.75169 l -9.36202,13.90208 7.66208,18.93701 7.6621,18.93701 -8.80096,0 c -7.35293,0 -9.55278,-1.91881 -13.37034,-11.66224 l -4.56934,-11.66224 -5.56398,7.72034 c -3.0602,4.24619 -5.59359,9.4942 -5.62975,11.66224 -0.0623,3.73318 -17.80863,5.95522 -17.80863,2.22983 z"
       id="path3006"
       inkscape:connector-curvature="0" />
  </g>
</svg>
